<svg width="30" height="22" viewBox="0 0 30 22" fill="none" xmlns="http://www.w3.org/2000/svg">
<path d="M9.64247 2.91951C10.0991 2.91824 10.0991 2.91824 10.565 2.91694C11.2062 2.91634 11.8473 2.91796 12.4885 2.92168C13.466 2.92644 14.4431 2.92172 15.4206 2.91604C16.0456 2.91663 16.6706 2.91777 17.2956 2.91951C17.5858 2.91772 17.876 2.91592 18.1751 2.91406C19.897 2.93162 21.1357 3.11531 22.6527 3.92642C24.2145 6.42465 23.7332 10.5538 23.0796 13.2965C22.4686 14.3036 21.6287 14.5824 20.5099 14.889C19.4369 15.0121 18.3751 15.0138 17.2956 15.0071C16.8389 15.0083 16.8389 15.0083 16.373 15.0096C15.7319 15.0102 15.0907 15.0086 14.4496 15.0049C13.4721 15.0001 12.495 15.0049 11.5175 15.0105C10.8925 15.0099 10.2675 15.0088 9.64247 15.0071C9.35223 15.0089 9.06199 15.0107 8.76296 15.0125C7.04987 14.9951 5.76914 14.8649 4.28531 14.0002C3.64402 12.9781 3.59465 12.0504 3.59175 10.8706C3.59096 10.5613 3.59017 10.2519 3.58936 9.93316C3.59172 9.6131 3.59409 9.29305 3.59653 8.96329C3.59416 8.64323 3.59179 8.32317 3.58936 7.99341C3.59014 7.68405 3.59093 7.37469 3.59175 7.05595C3.59244 6.77523 3.59313 6.49451 3.59384 6.20528C3.68486 5.28908 3.78878 4.71779 4.28531 3.92642C6.02423 2.913 7.65055 2.90717 9.64247 2.91951ZM7.95879 6.593C7.85675 7.48186 7.85675 7.48186 7.95879 8.37072C8.53583 9.05681 8.53583 9.05681 9.48941 9.03736C10.443 9.05681 10.443 9.05681 11.02 8.37072C11.1221 7.48186 11.1221 7.48186 11.02 6.593C10.443 5.90691 10.443 5.90691 9.48941 5.92636C8.53583 5.90691 8.53583 5.90691 7.95879 6.593ZM15.918 6.593C15.816 7.48186 15.816 7.48186 15.918 8.37072C16.495 9.05681 16.495 9.05681 17.4486 9.03736C18.4022 9.05681 18.4022 9.05681 18.9792 8.37072C19.0813 7.48186 19.0813 7.48186 18.9792 6.593C18.4022 5.90691 18.4022 5.90691 17.4486 5.92636C16.495 5.90691 16.495 5.90691 15.918 6.593ZM11.6323 10.741C11.6323 11.1321 11.6323 11.5232 11.6323 11.9262C12.8445 11.9262 14.0568 11.9262 15.3058 11.9262C15.3058 11.5351 15.3058 11.144 15.3058 10.741C14.0935 10.741 12.8813 10.741 11.6323 10.741Z" fill="white"/>
<path d="M9.60223 0.0249693C10.0585 0.0234901 10.0585 0.0234901 10.5239 0.0219809C11.1656 0.0204849 11.8073 0.0197858 12.449 0.0198335C13.4257 0.0191861 14.4024 0.0138015 15.3791 0.00818747C16.0045 0.00731796 16.6299 0.00673005 17.2553 0.00645142C17.6897 0.00325797 17.6897 0.00325797 18.1329 0C20.7885 0.0087765 23.0981 0.334074 25.1021 2.14874C25.3151 2.53935 25.5222 2.93328 25.7144 3.33388C26.1185 3.43166 26.5225 3.52943 26.9389 3.63017C26.9389 5.78121 26.9389 7.93225 26.9389 10.1485C26.3327 10.1485 25.7266 10.1485 25.1021 10.1485C24.5059 8.99441 24.5883 7.5034 24.4941 6.21978C24.3518 4.73168 24.1768 3.76789 22.9593 2.74131C21.0278 1.81277 19.239 1.68464 17.1047 1.63024C16.7862 1.62021 16.4677 1.61019 16.1396 1.59986C13.9211 1.54339 11.7076 1.55307 9.48983 1.63024C9.08192 1.64184 9.08192 1.64184 8.66578 1.65368C6.63205 1.74911 4.747 2.01762 3.23343 3.44499C2.20116 5.12348 2.39288 7.03102 2.39159 8.92629C2.38784 9.21312 2.38409 9.49995 2.38023 9.79547C2.34106 12.6212 2.34107 12.6212 3.75001 14.9816C5.69908 16.1392 7.58807 16.1936 9.81508 16.2594C10.2954 16.2762 10.2954 16.2762 10.7855 16.2934C13.9251 16.3944 17.0633 16.399 20.2042 16.3705C20.1031 16.8593 20.0021 17.3482 19.898 17.8519C18.0246 17.8666 16.1512 17.8773 14.2778 17.8845C13.6412 17.8874 13.0047 17.8915 12.3681 17.8966C11.4501 17.9038 10.5322 17.9072 9.61419 17.9098C9.3322 17.9128 9.05022 17.9159 8.75968 17.919C6.28868 17.9195 4.10439 17.6706 2.14286 16.0742C0.6787 14.1726 0.572381 12.425 0.612247 10.1485C0.410205 10.1485 0.208164 10.1485 0 10.1485C0 7.99743 0 5.84639 0 3.63017C0.404083 3.5324 0.808166 3.43462 1.22449 3.33388C1.40759 3.05889 1.59069 2.7839 1.77934 2.50058C2.71708 1.17807 3.73431 0.562528 5.38123 0.194741C6.791 0.0332131 8.18375 0.0265773 9.60223 0.0249693Z" fill="white"/>
<path d="M25.1022 11.334C25.5063 11.334 25.9104 11.334 26.3267 11.334C26.4167 11.6983 26.4167 11.6983 26.5084 12.0701C26.984 13.9337 26.984 13.9337 28.1778 15.3894C28.9155 15.7508 28.9155 15.7508 30.0002 16.0746C29.981 16.7597 29.981 16.7597 29.694 17.556C29.3594 17.6599 29.0248 17.7638 28.68 17.8708C28.0754 18.0402 28.0754 18.0402 27.5512 18.4449C26.9893 19.5922 26.6438 20.7705 26.3267 22.0003C25.8216 21.9025 25.3165 21.8047 24.7961 21.704C24.7582 21.4825 24.7203 21.261 24.6813 21.0327C24.3559 19.2987 24.3559 19.2987 23.2714 17.9645C22.6633 17.6802 22.0757 17.4456 21.4287 17.2597C21.4478 16.5745 21.4478 16.5745 21.7348 15.7783C22.0758 15.6683 22.4167 15.5583 22.768 15.445C23.3693 15.2742 23.3693 15.2742 23.8777 14.8894C24.2449 14.0467 24.449 13.2355 24.6406 12.3409C24.7961 11.6303 24.7961 11.6303 25.1022 11.334Z" fill="white"/>
</svg>
