<svg width="23" height="23" viewBox="0 0 23 23" fill="none" xmlns="http://www.w3.org/2000/svg">
<path d="M18.8316 3.27753C16.718 1.23649 13.9361 0.140698 10.9983 0.191976C8.06057 0.243255 5.31863 1.43546 3.27753 3.54903C1.23649 5.66264 0.140697 8.44448 0.191976 11.3823C0.243256 14.3201 1.43546 17.062 3.54903 19.1031C5.66264 21.1441 8.44452 22.2399 11.3823 22.1886C14.32 22.1373 17.062 20.9451 19.1031 18.8316C21.1441 16.718 22.2399 13.9361 22.1886 10.9983C22.1373 8.06053 20.9451 5.31863 18.8316 3.27753ZM15.4252 11.4425L8.66108 15.226C8.25285 15.4543 7.77302 15.0671 7.9097 14.6199L8.98682 11.0965L7.78734 7.61279C7.63505 7.17056 8.1013 6.76701 8.51712 6.9809L15.4092 10.526C15.7773 10.7153 15.7871 11.24 15.4252 11.4425Z" fill="white"/>
</svg>
