<svg width="55" height="55" viewBox="0 0 55 55" fill="none" xmlns="http://www.w3.org/2000/svg">
<path fill-rule="evenodd" clip-rule="evenodd" d="M30.9375 8.59375C30.9375 7.64328 31.7075 6.875 32.6562 6.875C33.605 6.875 34.375 7.64328 34.375 8.59375V15.4688C34.375 16.4192 33.605 17.1875 32.6562 17.1875C31.7075 17.1875 30.9375 16.4192 30.9375 15.4688V8.59375ZM15.4688 20.625H39.5312C40.48 20.625 41.25 19.8567 41.25 18.9062V0H13.75V18.9062C13.75 19.8567 14.52 20.625 15.4688 20.625ZM48.125 0H44.6875V20.625C44.6875 22.5225 43.1475 24.0625 41.25 24.0625H13.75C11.8525 24.0625 10.3125 22.5225 10.3125 20.625V0H6.875C3.07828 0 0 3.07828 0 6.875V48.125C0 51.9217 3.07828 55 6.875 55H48.125C51.9217 55 55 51.9217 55 48.125V6.875C55 3.07828 51.9217 0 48.125 0Z" fill="white"/>
</svg>
